<svg width="213" height="289" viewBox="0 0 213 289" fill="none" xmlns="http://www.w3.org/2000/svg">
<g clip-path="url(#clip0_15_104)">
<path d="M68.6056 223.146C68.6056 223.146 57.568 229.587 76.4606 231.767C99.3485 234.387 111.046 234.012 136.268 229.221C136.268 229.221 142.9 233.394 152.161 237.007C95.6185 261.324 24.1945 235.599 68.6056 223.146Z" fill="#228BC7"/>
<path d="M61.6962 191.414C61.6962 191.414 49.3165 200.61 68.2231 202.572C92.6724 205.103 111.981 205.31 145.391 198.854C145.391 198.854 150.013 203.555 157.279 206.126C88.9164 226.187 12.7722 207.709 61.6962 191.414Z" fill="#228BC7"/>
<path d="M119.943 137.585C133.875 153.682 116.283 168.166 116.283 168.166C116.283 168.166 151.659 149.84 135.412 126.892C120.238 105.492 108.602 94.8591 171.596 58.198C171.596 58.198 72.716 82.9793 119.943 137.585Z" fill="#68ABDE"/>
<path d="M194.725 246.617C194.725 246.617 202.893 253.372 185.73 258.596C153.093 268.517 49.8907 271.513 21.2217 258.991C10.9159 254.492 30.2422 248.249 36.3215 246.938C42.6616 245.56 46.2847 245.816 46.2847 245.816C34.8236 237.714 -27.7949 261.725 14.4776 268.6C129.761 287.361 224.628 260.153 194.725 246.617Z" fill="#228BC7"/>
<path d="M73.9136 158.535C73.9136 158.535 21.4186 171.048 55.3238 175.59C69.6396 177.514 98.1777 177.079 124.761 174.844C146.486 173.005 168.3 169.095 168.3 169.095C168.3 169.095 160.639 172.387 155.097 176.185C101.79 190.253 -1.19133 183.709 28.4555 169.318C53.5278 157.156 73.9136 158.535 73.9136 158.535Z" fill="#228BC7"/>
<path d="M168.083 211.356C222.273 183.098 197.218 155.944 179.73 159.603C175.443 160.498 173.532 161.274 173.532 161.274C173.532 161.274 175.123 158.772 178.163 157.69C212.76 145.484 239.367 193.688 166.994 212.78C166.994 212.78 167.833 212.029 168.083 211.356Z" fill="#228BC7"/>
<path d="M135.411 -1C135.411 -1 165.422 29.1255 106.947 75.45C60.056 112.611 96.2545 133.798 106.927 158.006C79.5566 133.225 59.4698 111.409 72.9456 91.106C92.7245 61.3024 147.52 46.8525 135.411 -1Z" fill="#68ABDE"/>
<path d="M79.2384 287.925C131.253 291.267 211.129 286.072 213.021 261.374C213.021 261.374 209.384 270.737 170.033 278.172C125.636 286.555 70.8804 285.577 38.4038 280.203C38.4038 280.203 45.0521 285.726 79.2384 287.925Z" fill="#228BC7"/>
</g>
<defs>
<clipPath id="clip0_15_104">
<rect width="213" height="289" fill="white"/>
</clipPath>
</defs>
</svg>
