<svg width="237" height="237" viewBox="0 0 237 237" fill="none" xmlns="http://www.w3.org/2000/svg">
<g filter="url(#filter0_d_16_4)">
<path d="M229.1 114.55C229.1 53.4673 179.583 3.95001 118.5 3.95001C57.4172 3.95001 7.8999 53.4673 7.8999 114.55C7.8999 175.633 57.4172 225.15 118.5 225.15C179.583 225.15 229.1 175.633 229.1 114.55Z" fill="url(#paint0_linear_16_4)"/>
<path d="M229.1 114.55C229.1 53.4673 179.583 3.95001 118.5 3.95001C57.4172 3.95001 7.8999 53.4673 7.8999 114.55C7.8999 175.633 57.4172 225.15 118.5 225.15C179.583 225.15 229.1 175.633 229.1 114.55Z" fill="black" fill-opacity="0.07"/>
<path d="M227.125 114.55C227.125 54.5581 178.492 5.92502 118.5 5.92502C58.5081 5.92502 9.875 54.5581 9.875 114.55C9.875 174.542 58.5081 223.175 118.5 223.175C178.492 223.175 227.125 174.542 227.125 114.55Z" stroke="white" stroke-opacity="0.16"/>
<path d="M119.407 172.835C111.187 172.835 103.617 171.6 96.6992 169.129C89.8262 166.703 83.8291 163.109 78.708 158.348C73.6318 153.586 69.6787 147.724 66.8486 140.761C64.0635 133.753 62.6709 125.734 62.6709 116.705V116.638C62.6709 108.282 64.0186 100.668 66.7139 93.7949C69.4092 86.9219 73.2275 80.9922 78.1689 76.0059C83.1553 71.0195 89.04 67.1787 95.8232 64.4834C102.651 61.7432 110.153 60.373 118.329 60.373C128.751 60.373 138.027 62.4619 146.158 66.6396C154.289 70.8174 160.69 76.7695 165.362 84.4961C170.034 92.1777 172.37 101.297 172.37 111.854V111.921C172.37 119.378 171.382 125.622 169.405 130.653C167.474 135.685 164.823 139.48 161.454 142.041C158.085 144.602 154.312 145.882 150.134 145.882C145.911 145.882 142.407 144.714 139.622 142.378C136.882 139.997 134.95 137.122 133.827 133.753L133.625 133.146H133.019C131.446 137.234 128.998 140.289 125.674 142.311C122.395 144.287 118.599 145.275 114.286 145.275C109.614 145.275 105.504 144.085 101.955 141.704C98.4512 139.323 95.7109 135.999 93.7344 131.731C91.8027 127.464 90.8369 122.478 90.8369 116.772V116.705C90.8369 111.18 91.8252 106.328 93.8018 102.15C95.8232 97.9727 98.5859 94.7158 102.09 92.3799C105.639 89.999 109.704 88.8086 114.286 88.8086C117.88 88.8086 121.182 89.6846 124.191 91.4365C127.201 93.1436 129.335 95.4346 130.593 98.3096H131.132V90.0889H141.307V122.904C141.307 127.531 142.138 130.99 143.8 133.281C145.462 135.572 147.618 136.718 150.269 136.718C152.649 136.718 154.716 135.797 156.468 133.955C158.265 132.113 159.657 129.373 160.646 125.734C161.679 122.051 162.195 117.469 162.195 111.988V111.921C162.195 103.206 160.309 95.6816 156.535 89.3477C152.807 83.0137 147.573 78.1396 140.835 74.7256C134.142 71.2666 126.348 69.5371 117.453 69.5371C110.984 69.5371 105.032 70.6826 99.5967 72.9736C94.1611 75.2646 89.4443 78.5215 85.4463 82.7441C81.4482 86.9219 78.3486 91.9082 76.1475 97.7031C73.9463 103.453 72.8457 109.787 72.8457 116.705V116.772C72.8457 126.835 74.8896 135.37 78.9775 142.378C83.0654 149.341 88.6133 154.619 95.6211 158.213C102.674 161.807 110.647 163.604 119.542 163.604C122.552 163.604 125.517 163.469 128.437 163.199C131.356 162.93 134.007 162.548 136.388 162.054C138.813 161.56 140.745 160.998 142.183 160.369V169.533C139.218 170.566 135.759 171.375 131.806 171.959C127.897 172.543 123.765 172.835 119.407 172.835ZM115.836 135.774C120.463 135.774 124.146 134.067 126.887 130.653C129.627 127.239 130.997 122.657 130.997 116.907V116.84C130.997 111.09 129.627 106.53 126.887 103.161C124.146 99.792 120.508 98.1074 115.971 98.1074C112.961 98.1074 110.378 98.8486 108.222 100.331C106.11 101.813 104.471 103.947 103.303 106.732C102.18 109.518 101.618 112.864 101.618 116.772V116.84C101.618 120.793 102.18 124.185 103.303 127.015C104.471 129.8 106.11 131.956 108.222 133.483C110.378 135.011 112.916 135.774 115.836 135.774Z" fill="white"/>
</g>
<defs>
<filter id="filter0_d_16_4" x="5.8999" y="2.95001" width="225.2" height="225.2" filterUnits="userSpaceOnUse" color-interpolation-filters="sRGB">
<feFlood flood-opacity="0" result="BackgroundImageFix"/>
<feColorMatrix in="SourceAlpha" type="matrix" values="0 0 0 0 0 0 0 0 0 0 0 0 0 0 0 0 0 0 127 0" result="hardAlpha"/>
<feOffset dy="1"/>
<feGaussianBlur stdDeviation="1"/>
<feColorMatrix type="matrix" values="0 0 0 0 0 0 0 0 0 0 0 0 0 0 0 0 0 0 0.05 0"/>
<feBlend mode="normal" in2="BackgroundImageFix" result="effect1_dropShadow_16_4"/>
<feBlend mode="normal" in="SourceGraphic" in2="effect1_dropShadow_16_4" result="shape"/>
</filter>
<linearGradient id="paint0_linear_16_4" x1="7.8999" y1="225.15" x2="255.495" y2="190.03" gradientUnits="userSpaceOnUse">
<stop stop-color="#1EA7F5"/>
<stop offset="1" stop-color="#29DDFF"/>
</linearGradient>
</defs>
</svg>
