<svg width="571" height="69" viewBox="0 0 571 69" fill="none" xmlns="http://www.w3.org/2000/svg">
<path d="M24.9375 67.6406L0 0H8.85938L29.0156 57.5156H29.2031L49.3594 0H58.2188L33.2812 67.6406H24.9375ZM63.7969 67.6406V18.8906H71.9531V67.6406H63.7969ZM67.875 10.6406C66.4688 10.6406 65.2656 10.1406 64.2656 9.14062C63.2656 8.14062 62.7656 6.9375 62.7656 5.53125C62.7656 4.09375 63.2656 2.89063 64.2656 1.92188C65.2656 0.921875 66.4688 0.421875 67.875 0.421875C69.3125 0.421875 70.5156 0.921875 71.4844 1.92188C72.4844 2.89063 72.9844 4.09375 72.9844 5.53125C72.9844 6.9375 72.4844 8.14062 71.4844 9.14062C70.5156 10.1406 69.3125 10.6406 67.875 10.6406ZM100.359 68.5781C96.5469 68.5781 93.25 67.9688 90.4688 66.75C87.6875 65.5312 85.4844 63.8281 83.8594 61.6406C82.2656 59.4531 81.2969 56.9062 80.9531 54L80.9062 53.5781H89.0625L89.1562 54.0469C89.6562 56.4844 90.8281 58.3906 92.6719 59.7656C94.5156 61.1094 97.0938 61.7812 100.406 61.7812C102.625 61.7812 104.516 61.5 106.078 60.9375C107.641 60.3438 108.844 59.5156 109.688 58.4531C110.531 57.3594 110.953 56.0781 110.953 54.6094V54.5625C110.953 52.8125 110.422 51.4062 109.359 50.3438C108.297 49.2812 106.375 48.4062 103.594 47.7188L95.8594 45.8438C92.7969 45.0938 90.25 44.125 88.2188 42.9375C86.2188 41.7188 84.7188 40.2344 83.7188 38.4844C82.7188 36.7344 82.2188 34.6875 82.2188 32.3438V32.2969C82.2188 29.4844 82.9688 27 84.4688 24.8438C86 22.6875 88.1094 21 90.7969 19.7812C93.5156 18.5625 96.625 17.9531 100.125 17.9531C103.688 17.9531 106.781 18.5938 109.406 19.875C112.062 21.125 114.141 22.8438 115.641 25.0312C117.172 27.1875 118.031 29.625 118.219 32.3438L118.266 32.9531H110.484L110.438 32.625C110.125 30.25 109.078 28.3438 107.297 26.9062C105.547 25.4688 103.156 24.75 100.125 24.75C98.1562 24.75 96.4531 25.0469 95.0156 25.6406C93.5781 26.2344 92.4688 27.0781 91.6875 28.1719C90.9375 29.2344 90.5625 30.4844 90.5625 31.9219V31.9688C90.5625 33.0625 90.8125 34.0625 91.3125 34.9688C91.8438 35.8438 92.6719 36.6094 93.7969 37.2656C94.9219 37.9219 96.375 38.4688 98.1562 38.9062L105.891 40.7812C110.828 41.9688 114.297 43.6094 116.297 45.7031C118.297 47.7656 119.297 50.5312 119.297 54V54.0469C119.297 56.8906 118.469 59.4062 116.812 61.5938C115.188 63.7812 112.938 65.5 110.062 66.75C107.219 67.9688 103.984 68.5781 100.359 68.5781ZM128.203 67.6406V0H136.359V26.6719H136.547C137.859 23.9219 139.812 21.7812 142.406 20.25C145 18.7188 148.109 17.9531 151.734 17.9531C155.203 17.9531 158.234 18.7969 160.828 20.4844C163.453 22.1406 165.5 24.4531 166.969 27.4219C168.438 30.3906 169.172 33.8438 169.172 37.7812V67.6406H161.016V39.1875C161.016 34.7812 159.953 31.3438 157.828 28.875C155.703 26.4062 152.734 25.1719 148.922 25.1719C146.422 25.1719 144.219 25.7656 142.312 26.9531C140.438 28.1406 138.969 29.7812 137.906 31.875C136.875 33.9688 136.359 36.4062 136.359 39.1875V67.6406H128.203ZM189.188 67.6406L175.547 18.8906H183.656L193.406 58.5469H193.594L204.609 18.8906H212.484L223.547 58.5469H223.734L233.484 18.8906H241.547L227.953 67.6406H219.656L208.641 29.9062H208.453L197.484 67.6406H189.188ZM261.562 68.5781C258.344 68.5781 255.516 67.9688 253.078 66.75C250.641 65.5312 248.734 63.8125 247.359 61.5938C246.016 59.375 245.344 56.7969 245.344 53.8594V53.7656C245.344 50.9844 246.031 48.5781 247.406 46.5469C248.812 44.5156 250.828 42.9062 253.453 41.7188C256.109 40.5312 259.297 39.8281 263.016 39.6094L281.062 38.5781V44.9062L263.953 45.9375C260.703 46.125 258.172 46.9062 256.359 48.2812C254.578 49.6562 253.688 51.4844 253.688 53.7656V53.8594C253.688 56.2031 254.562 58.0625 256.312 59.4375C258.094 60.8125 260.453 61.5 263.391 61.5C265.953 61.5 268.25 60.9688 270.281 59.9062C272.344 58.8125 273.969 57.3281 275.156 55.4531C276.375 53.5781 276.984 51.4688 276.984 49.125V34.7344C276.984 31.7656 276.047 29.4375 274.172 27.75C272.328 26.0312 269.703 25.1719 266.297 25.1719C263.172 25.1719 260.641 25.8594 258.703 27.2344C256.797 28.5781 255.609 30.3438 255.141 32.5312L255.047 32.9531H247.172L247.219 32.4375C247.469 29.75 248.375 27.3125 249.938 25.125C251.531 22.9375 253.719 21.2031 256.5 19.9219C259.281 18.6094 262.578 17.9531 266.391 17.9531C270.234 17.9531 273.547 18.6094 276.328 19.9219C279.141 21.2344 281.312 23.0938 282.844 25.5C284.375 27.875 285.141 30.6875 285.141 33.9375V67.6406H276.984V59.7188H276.797C275.859 61.5 274.609 63.0625 273.047 64.4062C271.484 65.7188 269.719 66.75 267.75 67.5C265.812 68.2188 263.75 68.5781 261.562 68.5781ZM333.562 67.6406V7.59375H312.234V0H363.328V7.59375H342V67.6406H333.562ZM371.391 67.6406V0H379.547V26.6719H379.734C381.047 23.9219 383 21.7812 385.594 20.25C388.188 18.7188 391.297 17.9531 394.922 17.9531C398.391 17.9531 401.422 18.7969 404.016 20.4844C406.641 22.1406 408.688 24.4531 410.156 27.4219C411.625 30.3906 412.359 33.8438 412.359 37.7812V67.6406H404.203V39.1875C404.203 34.7812 403.141 31.3438 401.016 28.875C398.891 26.4062 395.922 25.1719 392.109 25.1719C389.609 25.1719 387.406 25.7656 385.5 26.9531C383.625 28.1406 382.156 29.7812 381.094 31.875C380.062 33.9688 379.547 36.4062 379.547 39.1875V67.6406H371.391ZM423.234 67.6406V18.8906H431.391V67.6406H423.234ZM427.312 10.6406C425.906 10.6406 424.703 10.1406 423.703 9.14062C422.703 8.14062 422.203 6.9375 422.203 5.53125C422.203 4.09375 422.703 2.89063 423.703 1.92188C424.703 0.921875 425.906 0.421875 427.312 0.421875C428.75 0.421875 429.953 0.921875 430.922 1.92188C431.922 2.89063 432.422 4.09375 432.422 5.53125C432.422 6.9375 431.922 8.14062 430.922 9.14062C429.953 10.1406 428.75 10.6406 427.312 10.6406ZM442.922 67.6406V0H451.078V67.6406H442.922ZM462.609 67.6406V18.8906H470.766V67.6406H462.609ZM466.688 10.6406C465.281 10.6406 464.078 10.1406 463.078 9.14062C462.078 8.14062 461.578 6.9375 461.578 5.53125C461.578 4.09375 462.078 2.89063 463.078 1.92188C464.078 0.921875 465.281 0.421875 466.688 0.421875C468.125 0.421875 469.328 0.921875 470.297 1.92188C471.297 2.89063 471.797 4.09375 471.797 5.53125C471.797 6.9375 471.297 8.14062 470.297 9.14062C469.328 10.1406 468.125 10.6406 466.688 10.6406ZM481.875 67.6406V18.8906H490.031V25.8281H490.219C491.531 23.5469 493.438 21.6719 495.938 20.2031C498.438 18.7031 501.531 17.9531 505.219 17.9531C510.562 17.9531 514.703 19.5781 517.641 22.8281C520.609 26.0469 522.094 30.4375 522.094 36V67.6406H513.938V37.4531C513.938 33.4844 513 30.4531 511.125 28.3594C509.281 26.2344 506.484 25.1719 502.734 25.1719C500.172 25.1719 497.938 25.75 496.031 26.9062C494.125 28.0312 492.641 29.625 491.578 31.6875C490.547 33.75 490.031 36.1719 490.031 38.9531V67.6406H481.875ZM546.75 68.5781C543.531 68.5781 540.703 67.9688 538.266 66.75C535.828 65.5312 533.922 63.8125 532.547 61.5938C531.203 59.375 530.531 56.7969 530.531 53.8594V53.7656C530.531 50.9844 531.219 48.5781 532.594 46.5469C534 44.5156 536.016 42.9062 538.641 41.7188C541.297 40.5312 544.484 39.8281 548.203 39.6094L566.25 38.5781V44.9062L549.141 45.9375C545.891 46.125 543.359 46.9062 541.547 48.2812C539.766 49.6562 538.875 51.4844 538.875 53.7656V53.8594C538.875 56.2031 539.75 58.0625 541.5 59.4375C543.281 60.8125 545.641 61.5 548.578 61.5C551.141 61.5 553.438 60.9688 555.469 59.9062C557.531 58.8125 559.156 57.3281 560.344 55.4531C561.562 53.5781 562.172 51.4688 562.172 49.125V34.7344C562.172 31.7656 561.234 29.4375 559.359 27.75C557.516 26.0312 554.891 25.1719 551.484 25.1719C548.359 25.1719 545.828 25.8594 543.891 27.2344C541.984 28.5781 540.797 30.3438 540.328 32.5312L540.234 32.9531H532.359L532.406 32.4375C532.656 29.75 533.562 27.3125 535.125 25.125C536.719 22.9375 538.906 21.2031 541.688 19.9219C544.469 18.6094 547.766 17.9531 551.578 17.9531C555.422 17.9531 558.734 18.6094 561.516 19.9219C564.328 21.2344 566.5 23.0938 568.031 25.5C569.562 27.875 570.328 30.6875 570.328 33.9375V67.6406H562.172V59.7188H561.984C561.047 61.5 559.797 63.0625 558.234 64.4062C556.672 65.7188 554.906 66.75 552.938 67.5C551 68.2188 548.938 68.5781 546.75 68.5781Z" fill="url(#paint0_linear_16_2)"/>
<defs>
<linearGradient id="paint0_linear_16_2" x1="-1.17188" y1="66.1406" x2="731.828" y2="66.1406" gradientUnits="userSpaceOnUse">
<stop stop-color="#29DDFF"/>
<stop offset="1" stop-color="#1EA7F5"/>
</linearGradient>
</defs>
</svg>
